<svg xmlns="http://www.w3.org/2000/svg" viewBox="0 0 265.7 264.78"><defs><style>.cls-1{fill:#d93920;}.cls-2{fill:#fff;}</style></defs><g id="Layer_2" data-name="Layer 2"><g id="Layer_1-2" data-name="Layer 1"><path class="cls-1" d="M216.23,222.1c-9.75,5.55-20.39,9.26-30.89,13.12-4.32,1.59-54.29,20.12-59.44,23.47-4.76,3.09-11.66,4.39-17.19,5.26A66.19,66.19,0,0,1,36,221.64c-4.12-11.08-4.73-24.82,3.27-33.53,3.11-3.39,7.25-5.71,10.32-9.13,5.58-6.24,3.63-11.57,4.4-18.66.86-7.95,3.53-15.14,8.69-21A101.17,101.17,0,0,1,79.39,124.1c6.2-4.49,12.35-6.36,17.69-11.85,0,0,13.45-16.67,12.73-27-.33-4.82-1.78-9.48-2.84-14.2-2-9-2.62-18.6.29-27.37S117.06,27.13,126,24.9a32.46,32.46,0,0,1,10.27-.63c8.59.62,16.44,3.42,24.25,6.82,7.51,3.27,13.76,8.77,20.86,12.77,1.07.6,2.15,1.16,3.26,1.69,3.19,1.5,6.55,2.62,9.83,3.92,2.91,1.16,5.75,2.47,8.59,3.79,4.74,2.22,8.23,4.14,12.93,6.46,3,1.56,2.81,4.68,2.59,8A23.58,23.58,0,0,1,211,83.58c-2.4,2.13-5.11,2.61-7.95,4a28.37,28.37,0,0,0-8.36,5.86c-3.46,3.63-5.66,8.69-5,13.67.45,3.47,2.21,6.61,3.93,9.66,3,5.28,6,10.62,10.17,15,5.3,5.6,20,22.06,27.13,25.09,12.52,6.34,16.49,21,12.52,34.44S228.43,215.16,216.23,222.1Z"/><path class="cls-2" d="M177.84,117.94c.31,9.92,1,18.65,1.28,28.57,0,1.45.28,3.2,1.61,3.77a2.62,2.62,0,0,0,3-1.12,7.37,7.37,0,0,0,1-3.33,101.77,101.77,0,0,0-.14-25.57"/><path d="M176.34,117.94c.16,4.92.41,9.83.67,14.75.24,4.76.28,9.55.63,14.29.12,1.67.52,3.53,2.06,4.46a4,4,0,0,0,5-1.09c1.39-1.63,1.48-3.93,1.7-6q.38-3.6.51-7.23a103.62,103.62,0,0,0-.82-16.89,1.56,1.56,0,0,0-1.5-1.5,1.5,1.5,0,0,0-1.5,1.5,102.25,102.25,0,0,1,.2,25.09c-.08.67-.57,4.44-2.08,3.5-1-.61-.63-3.42-.67-4.31-.15-4.18-.36-8.37-.58-12.55-.24-4.68-.48-9.37-.63-14.05-.06-1.93-3.06-1.94-3,0Z"/><path class="cls-2" d="M226.58,111.55a218.61,218.61,0,0,1,9.51,30,12,12,0,0,1,.53,5.1,4.13,4.13,0,0,1-3.3,3.51,4.19,4.19,0,0,1-3.86-2.46,13.83,13.83,0,0,1-1.12-4.7,71.94,71.94,0,0,0-4.82-18.17c-1.35-3.27-3-6.55-3-10.08"/><path d="M225.13,112a218.32,218.32,0,0,1,9.45,29.75c.51,2,1.44,5-.51,6.57s-3.54-1.52-3.88-3.05c-.54-2.43-.69-4.95-1.18-7.39a71.4,71.4,0,0,0-1.86-7.36c-.81-2.6-1.79-5.13-2.85-7.63a23.38,23.38,0,0,1-2.32-8.1c-.07-1.92-3.07-1.93-3,0a23.28,23.28,0,0,0,2.06,8c1.1,2.67,2.2,5.32,3.08,8.07a72.87,72.87,0,0,1,2.13,8.47c.52,2.75.51,5.79,1.58,8.39.88,2.15,2.86,4,5.31,4a5.43,5.43,0,0,0,4.8-4.12c.81-2.7-.2-5.63-.88-8.25q-1.14-4.39-2.38-8.75A181.66,181.66,0,0,0,228,111.15c-.73-1.76-3.64-1-2.9.8Z"/><path class="cls-2" d="M252.73,79.17c-.4,1.89,1.33,4.35,1.94,6.18l9.13,27.38c.41,1.24.73,2.84-.29,3.66a2.21,2.21,0,0,1-2.56-.1,6.23,6.23,0,0,1-1.69-2.14,115,115,0,0,1-10-23.17"/><path d="M251.28,78.78a8.48,8.48,0,0,0,1.05,4.94,56.8,56.8,0,0,1,2.15,5.8l4.57,13.7,2.28,6.84c.21.64,2.05,4.7,1.19,5.18-1.46.81-5.83-9.24-6.38-10.43a112.57,112.57,0,0,1-5.41-14.23c-.57-1.84-3.47-1-2.9.8a122.42,122.42,0,0,0,5.34,14.11q1.56,3.45,3.35,6.8c1,1.88,2,4.39,4,5.47a3.43,3.43,0,0,0,4.92-1.54c.83-2-.32-4.35-1-6.25l-5.2-15.58-2.83-8.5a28.15,28.15,0,0,0-1.28-3.18c-.42-.9-1.13-2.11-1-3.14.29-1.89-2.6-2.7-2.9-.79Z"/><path class="cls-2" d="M183.32,69.87c-5.31,8.85-14.84,15.66-16.39,25.87-1.22,8,3.23,16.18,9.93,20.69s15.25,5.66,23.25,4.54,15.55-4.33,22.74-8c12.08-6.15,24.26-14.62,28.53-27.48,2-6.12,2.07-12.68,2.09-19.12a161.83,161.83,0,0,0-.53-16.92,100,100,0,0,0-8.52-30.53,37,37,0,0,0-4.73-8.3c-5.26-6.51-14.07-9.45-22.44-9.09A54.7,54.7,0,0,0,193.2,8.09c-4.54,2.51-6.94,4.73-8.54,7.82a28.17,28.17,0,0,0-2.56,8.52c-.59,4.72.59,8.1,2.06,12.27S189.25,60,183.32,69.87Z"/><path d="M182,69.12c-5.46,9-15.3,15.93-16.66,27-1.42,11.61,7.47,21.67,18,25.09,12.32,4,25.28.22,36.55-5.11,10-4.75,20.23-10.67,27.14-19.56a35.23,35.23,0,0,0,7-15.52c1.16-6.56,1-13.32.92-20a105.1,105.1,0,0,0-1.82-20.19,104.17,104.17,0,0,0-6-19.37c-2.31-5.55-4.82-11.24-9.6-15.13a29.14,29.14,0,0,0-15-6.11A48.76,48.76,0,0,0,204.43,2c-6,1.61-12.22,4.17-17,8.18-4,3.34-6,8.47-6.71,13.53a21.79,21.79,0,0,0,.53,8.84c.53,2,1.34,3.9,1.88,5.89a59.94,59.94,0,0,1,1.77,10.8,46.56,46.56,0,0,1-.65,14.09,20.14,20.14,0,0,1-2.2,5.81,1.5,1.5,0,0,0,2.59,1.51c4.39-7.47,3.92-17.32,2.8-25.6a46.79,46.79,0,0,0-1.78-8.62,35,35,0,0,1-2.11-7.83,21.49,21.49,0,0,1,1-8.31A16.68,16.68,0,0,1,187.74,14,22.71,22.71,0,0,1,194,9.39,51.77,51.77,0,0,1,211.39,3.6c5.49-.83,11.08-.89,16.41.85a22.51,22.51,0,0,1,12.35,9.42c3.24,5.21,5.43,11.28,7.3,17.09a90.81,90.81,0,0,1,4,18.27A174.67,174.67,0,0,1,252,68.91c-.06,6.14-.38,12.39-2.74,18.14-4,9.62-12.64,16.42-21.39,21.52-10.1,5.88-21.66,11.36-33.58,11.3-10.9-.05-22.27-5.55-25.36-16.74-3-10.74,5.25-18.8,11.38-26.44a56.25,56.25,0,0,0,4.35-6.06C185.62,69,183,67.47,182,69.12Z"/><path class="cls-2" d="M205.78,68.9a55.41,55.41,0,0,1,23.59-2.16A13.38,13.38,0,0,1,236,69"/><path d="M206.18,70.35a54.25,54.25,0,0,1,22.72-2.16,13,13,0,0,1,6.37,2.09c1.56,1.15,3.06-1.45,1.52-2.59a14.26,14.26,0,0,0-6.63-2.34,55.72,55.72,0,0,0-8.26-.53,57.51,57.51,0,0,0-16.52,2.64c-1.84.57-1,3.47.8,2.89Z"/><path class="cls-2" d="M87.65,133.75c-4.48-17.37-9.54-36.15-11.73-54.13l0,0c-25.44,11.73-48,24.57-74.12,34.08l-.3.23,10.89,58.81"/><path d="M89.09,133.35c-4.57-17.74-9.43-35.52-11.67-53.73-.17-1.36-2-2.19-2.8-.76.33-.6-.16-.13-.35-.1a5.33,5.33,0,0,0-1.09.5l-1.73.81L67.59,81.9c-2.48,1.19-5,2.38-7.42,3.59Q53,89,45.78,92.58c-9.59,4.72-19.22,9.38-29,13.6Q12.62,108,8.45,109.6c-1.46.57-2.92,1.14-4.4,1.69a13.5,13.5,0,0,0-3.32,1.37,1.58,1.58,0,0,0-.69,1.7l10.88,58.81c.35,1.9,3.24,1.09,2.89-.8L2.93,113.56l-.69,1.69A12.5,12.5,0,0,1,5.29,114q2-.75,4-1.53,3.77-1.48,7.5-3.08c5-2.1,9.89-4.33,14.77-6.62,9.85-4.62,19.55-9.52,29.32-14.3q4.23-2.07,8.47-4.1l4.09-1.93,2.17-1c.59-.27,1.3-.47,1.64-1.08l-2.79-.75c2.27,18.49,7.14,36.52,11.78,54.53.48,1.86,3.38,1.07,2.89-.8Z"/><path class="cls-2" d="M12.63,172.7c16.67,8.63,31.83,19.94,48.5,28.57a7.9,7.9,0,0,0,4.5,1.3A8.28,8.28,0,0,0,69,201a327,327,0,0,0,61-54.4c-9.24-5.65-38.59-8.94-41.83-12.81v-.26c-23.82,16.44-51.95,22.29-75.65,39"/><path d="M11.87,174c8.82,4.58,17.22,9.89,25.63,15.16,4.28,2.67,8.56,5.34,12.91,7.89,2.14,1.26,4.29,2.48,6.47,3.67a31.68,31.68,0,0,0,6.47,3.14c2.32.62,4.29-.18,6.2-1.47s3.84-2.66,5.74-4q5.71-4.09,11.24-8.45,11.22-8.82,21.64-18.62,12-11.26,22.82-23.66a1.52,1.52,0,0,0-.31-2.35c-5.13-3.1-11.48-4.4-17.24-5.78-6.36-1.52-12.82-2.72-19.1-4.57A32.91,32.91,0,0,1,91,133.79a12.18,12.18,0,0,1-1.25-.63c-.47-.29-.21-.06-.57-.47l.44,1.06v-.26a1.51,1.51,0,0,0-2.26-1.3C69,144.79,47.61,151.38,28,161.47a138.28,138.28,0,0,0-16.25,9.7c-1.57,1.1-.07,3.7,1.52,2.59C31.44,161,52.84,154.33,72.55,144.35a140.85,140.85,0,0,0,16.31-9.57l-2.25-1.29c-.06,2.08,3,3,4.59,3.57a74.48,74.48,0,0,0,8.18,2.27c7,1.67,14.08,3,21,5.07a37,37,0,0,1,8.81,3.46l-.3-2.36a334,334,0,0,1-40.3,38.95q-5.35,4.35-10.88,8.46c-1.83,1.35-3.67,2.69-5.52,4a46.07,46.07,0,0,1-5.57,3.76c-2.19,1.11-4.45-.54-6.36-1.56-2.19-1.16-4.36-2.37-6.51-3.61-4.17-2.4-8.26-4.92-12.34-7.46-9.22-5.75-18.36-11.63-28-16.64-1.72-.89-3.23,1.7-1.52,2.59Z"/><path d="M27.74,171.94Q52,161.08,75.37,148.42q6.41-3.46,12.73-7.08a1.5,1.5,0,0,0-1.51-2.59c-15.37,8.79-31.14,16.91-47.14,24.5q-6.59,3.12-13.23,6.1c-1.76.79-.23,3.38,1.52,2.59Z"/><path d="M26.07,172.15q14.76,8.94,30.21,16.67a1.51,1.51,0,0,0,1.51,0c14.71-10.09,29.46-20.13,43.89-30.61q5.86-4.25,11.62-8.62c.93-.71,1-2.44-.35-2.74-8.5-1.82-17.08-4.12-24.85-8.1-1.71-.88-3.23,1.71-1.51,2.59,8,4.1,16.8,6.53,25.56,8.4l-.36-2.74c-14.19,10.8-28.88,20.94-43.58,31l-11.93,8.19h1.51q-15.43-7.72-30.21-16.67c-1.65-1-3.16,1.59-1.51,2.59Z"/><path class="cls-2" d="M161.93,214.56c.88,4.52,1.2,5.83,2.07,10.35.52,2.67.75,7,2.08,9.32,3.64,6.55,9.1,7.64,16.56,8.29,21.3,1.83,34,.26,48.32-15.58a11.62,11.62,0,0,0,2.75-4.26,13.15,13.15,0,0,0,.31-4.34l-.64-16.13"/><path d="M160.49,215c.78,4,1.77,8.07,2.36,12.15a35.08,35.08,0,0,0,1.15,6,14.74,14.74,0,0,0,2.88,4.87c5,5.89,13.67,6,20.79,6.38s14.65.43,21.7-1.47a43.84,43.84,0,0,0,18.12-10.34c3.52-3.22,7.82-7,8-12.05.14-3-.17-6-.29-9l-.37-9.29c-.08-1.93-3.08-1.94-3,0l.6,15.15c.1,2.46.25,4.71-1.2,6.83a32,32,0,0,1-4.06,4.5,42.87,42.87,0,0,1-16.66,10.75c-6.26,2-12.88,2.35-19.42,2.12-3.9-.14-7.85-.36-11.72-.88-3.07-.41-6.28-1.16-8.74-3.15a12.76,12.76,0,0,1-3.45-4.33,21.27,21.27,0,0,1-1.39-6.17c-.61-4.32-1.63-8.58-2.46-12.87-.37-1.89-3.26-1.09-2.89.8Z"/><path class="cls-2" d="M186.66,178.91a381,381,0,0,0-47.75,28.31,215.21,215.21,0,0,0,61.7,15.41,9.15,9.15,0,0,0,3.26-.09,9.55,9.55,0,0,0,2.95-1.61L247.13,192c-18.38-5-42-8.24-60.39-13.2Z"/><path d="M185.9,177.61a386.16,386.16,0,0,0-47.75,28.31,1.52,1.52,0,0,0,.36,2.74,216,216,0,0,0,44.63,13.07q5.7,1,11.45,1.73c1.7.21,3.39.4,5.09.58,2,.19,3.89.37,5.74-.48a30.42,30.42,0,0,0,4.57-3.07l5.24-3.76,10.08-7.22,22.58-16.17a1.52,1.52,0,0,0-.36-2.74c-16.28-4.38-33-6.89-49.44-10.55q-3.36-.74-6.69-1.56l-3.12-.79c-1-.26-1.85-.62-2.68.15-1.43,1.3.7,3.42,2.12,2.12l.08-.07-1.46.38c15.66,4.21,31.73,6.69,47.57,10.13,4.29.94,8.57,1.94,12.82,3.08l-.36-2.74-39.1,28c-1.46,1-2.91,2.36-4.78,2.46a37.39,37.39,0,0,1-6.05-.55q-5.58-.65-11.13-1.6a216,216,0,0,1-21.8-4.92,214.92,214.92,0,0,1-24.2-8.39l.35,2.74a386.28,386.28,0,0,1,47.76-28.31C189.14,179.34,187.63,176.75,185.9,177.61Z"/><path d="M188.62,198.71l-29.5,7.41L151.69,208c-2,.51-4.73.72-5.95,2.66s-1.42,4.43-1.7,6.54c-.3,2.29-.41,4.61-.51,6.92q-.34,8.55-.68,17.1c-.08,1.93,2.92,1.93,3,0l.57-14.19c.17-4.43.17-9,1.33-13.28.3-1.11.48-1.76,1.66-2.08s2.37-.6,3.55-.89l7-1.75,13.67-3.43,15.83-4c1.87-.47,1.08-3.36-.8-2.89Z"/><path d="M141.79,245.05c.08-.24.16-.49.25-.73l.15-.42c.13-.35-.14.29,0,0a5.51,5.51,0,0,1,.36-.68,1.51,1.51,0,0,1,.24-.36l-.1.13.14-.17s.26-.29.3-.27l-.15.11.16-.11a1.74,1.74,0,0,1,.35-.19s-.34.12,0,0l.33-.08-.16,0h.38c-.22,0-.28,0-.16,0l.13,0c.16.05.12,0-.09,0,0,0,.25.09.25.14-.16-.13-.18-.14-.06,0l.15.15c.22.22-.12-.22,0,0s.15.24.21.37.21.39,0,0c.06.14.11.29.17.44s.2.56.29.84c.17.57.33,1.15.45,1.73.05.27.1.54.14.81,0,.08.1.54,0,.17,0,.17,0,.34.06.51a1.5,1.5,0,0,0,3,0,21.08,21.08,0,0,0-.64-3.53c-.16-.53-.33-1.05-.53-1.57a6.47,6.47,0,0,0-.74-1.49,3.49,3.49,0,0,0-3.17-1.56,4.47,4.47,0,0,0-3,1.59,10.09,10.09,0,0,0-1.65,3.39,1.5,1.5,0,0,0,1,1.84,1.53,1.53,0,0,0,1.84-1Z"/><path d="M143.36,241.22l-.79,7a1.5,1.5,0,0,0,1.5,1.5,1.54,1.54,0,0,0,1.5-1.5l.79-7a1.5,1.5,0,0,0-1.5-1.5,1.54,1.54,0,0,0-1.5,1.5Z"/></g></g></svg>