<svg xmlns="http://www.w3.org/2000/svg" viewBox="0 0 265.41 268.36"><defs><style>.cls-1{fill:#b01711;}.cls-2{fill:#fff;}</style></defs><g id="Layer_2" data-name="Layer 2"><g id="Layer_1-2" data-name="Layer 1"><path class="cls-1" d="M41.5,143.58c-14.83,12-21.73,32.51-18.78,51.37s15.09,35.72,31.19,46C69.72,251,89,254.92,107.67,254s37-6.43,54.09-14.06c7.3-3.26,14.54-7,20.36-12.45,7.24-6.79,11.86-15.83,17.82-23.76,11.33-15.07,27.4-26,39.09-40.79,5.78-7.32,10.54-15.87,11.27-25.16.65-8.32-2-16.53-5-24.3-4.32-11-9.8-21.88-18.39-30C217,74.09,203.65,69,193.36,60s-17.07-21.67-24.89-33.1S150.6,4.43,137.17,1c-12.62-3.2-26.51,1.28-36.08,10.12s-15,21.55-16.58,34.48c-1.35,11.14.17,23,6.22,32.42,7.3,11.43,16.76,20,20.53,33a11.32,11.32,0,0,1,.27,6.54,23.29,23.29,0,0,1-4.81,7.72c-11,10-21,12.65-35.85,13.07-10.92.31-21-1.22-29.65,5.43Z"/><path class="cls-2" d="M6.36,185.61c3.5,8.94,6.39,17.7,9.88,26.64,2.21,5.67,4.21,11.75,4.63,12.34a3.16,3.16,0,0,0,1.14.87c3.54,1.82,7.72,1.9,11.68,1.51a56.11,56.11,0,0,0,26.94-10.06c1.56-1.11,3.18-2.49,3.44-4.38a7.26,7.26,0,0,0,0-1.86l-2.19-19.91a153,153,0,0,0-2.15-15.84"/><path d="M4.91,186c3.5,9,6.58,18.1,10.05,27.08,1.38,3.57,2.59,7.22,4,10.79a4.67,4.67,0,0,0,2.16,2.79,16.11,16.11,0,0,0,5.75,1.77,39.25,39.25,0,0,0,12.82-.85,58.14,58.14,0,0,0,11.92-3.83,48.15,48.15,0,0,0,11-6.49,7.29,7.29,0,0,0,2.92-4.54c.32-2.28-.33-4.87-.58-7.16-.59-5.33-1.19-10.66-1.76-16a149.76,149.76,0,0,0-2.08-15.06c-.39-1.89-3.29-1.09-2.89.8,1.76,8.33,2.26,17,3.19,25.4l.73,6.55c.19,1.78,1,4.44.06,6.08s-2.69,2.54-4.13,3.49a54.75,54.75,0,0,1-5.26,3,51.32,51.32,0,0,1-22.56,5.79,18.43,18.43,0,0,1-5.9-.83,6.16,6.16,0,0,1-2.21-1c-.22-.22-.19-.38-.32-.71-1.25-3.2-2.33-6.48-3.56-9.7C14.72,204,11.45,194.54,7.8,185.21c-.69-1.78-3.59-1-2.89.8Z"/><path class="cls-2" d="M49.52,159c-16.5-2.22-27.17,1.36-42.35,8.2-3,1.34-6.4,3.89-5.54,7a5.21,5.21,0,0,0,1.5,2.31c2.26,2.16,5.47,3,8.54,3.56,8.34,1.62,17,2.23,25.27.31s16.32-5.22,20.8-12.42c.76-1.22,1.44-3.23,1-4.6S54,159.54,49.52,159Z"/><path d="M49.52,157.52a63.65,63.65,0,0,0-27.4,2.18A125.29,125.29,0,0,0,8.9,164.81c-3.54,1.56-8.74,3.71-8.9,8.3-.16,4.77,5.52,7.15,9.35,8.06a72.41,72.41,0,0,0,15.93,2,53.46,53.46,0,0,0,15.24-2.06,38.63,38.63,0,0,0,11.83-5.33,24.47,24.47,0,0,0,5.26-5c1.49-1.9,2.91-4.18,2.75-6.7-.12-2-1.61-3.13-3.19-4.06a20.07,20.07,0,0,0-7.65-2.51c-1.91-.25-1.89,2.75,0,3a16.29,16.29,0,0,1,5.84,1.93c1.38.77,2.23,1.2,1.93,2.73A10.76,10.76,0,0,1,54.41,170a22.09,22.09,0,0,1-4.18,3.6c-6.75,4.51-15.52,6.45-23.54,6.56a71.5,71.5,0,0,1-14.15-1.35A26.25,26.25,0,0,1,7,177.27c-1.52-.66-3.85-2-3.95-3.87-.09-1.66,1.6-3,2.84-3.77A39.26,39.26,0,0,1,11.43,167a114.54,114.54,0,0,1,11.49-4.37,61.52,61.52,0,0,1,26.6-2.07,1.5,1.5,0,1,0,0-3Z"/><path class="cls-2" d="M59,163.71a46.6,46.6,0,0,1,2.32,6,3.7,3.7,0,0,1,.23,1.64,3.58,3.58,0,0,1-.64,1.37,26.35,26.35,0,0,1-3.29,4.41c-3,3-7.15,4.34-11.07,5.87s-7.53,3.23-11.5,4.17c-7.06,1.68-14.45.75-21.65-.19a23.82,23.82,0,0,1-8.23-2.08,4.41,4.41,0,0,1-2.26-2.24,6.51,6.51,0,0,1-.21-2.12,32.39,32.39,0,0,0-1.21-7.42"/><path d="M57.72,164.46c.56,1.21,1.06,2.44,1.51,3.69.37,1,1.14,2.44.6,3.5a17.15,17.15,0,0,1-4.47,5.5,24.55,24.55,0,0,1-6.14,3.24c-2.33.92-4.67,1.83-7,2.77a41.39,41.39,0,0,1-15.57,3.45,87,87,0,0,1-16-1.54c-1.91-.34-6.11-1-6.4-3.43-.16-1.43-.09-2.86-.31-4.29s-.6-3.09-1-4.62c-.46-1.87-3.35-1.08-2.89.8.37,1.53.75,3.06,1,4.61s0,3.07.33,4.52c.6,2.51,3.13,3.76,5.37,4.53a43.43,43.43,0,0,0,8.56,1.55c3.07.38,6.14.73,9.23.84a44.62,44.62,0,0,0,9.09-.57,44.37,44.37,0,0,0,8.76-2.7c2.67-1.07,5.36-2.11,8-3.18a26.91,26.91,0,0,0,7.08-3.86A17.65,17.65,0,0,0,60.56,176a15.69,15.69,0,0,0,2.27-3.65c.57-1.52,0-3.06-.55-4.51q-.87-2.47-2-4.84c-.81-1.75-3.39-.23-2.59,1.51Z"/><path class="cls-2" d="M51.26,96.61c-6-6.8-12.13-15.86-9.75-24.63,1.34-4.93,4.63-9.81,7.83-13.79l.1-.08c2.45-.83,4.94,1.15,6.57,3.16,4.9,6,7.47,14.4,5.11,21.82-1.57,5-5.1,9-8.55,12.9"/><path d="M52.32,95.55c-3.68-4.17-7.24-8.84-9-14.21a16.24,16.24,0,0,1-.69-7.76A24.62,24.62,0,0,1,46,65.49c.69-1.17,1.44-2.3,2.23-3.4.43-.61.87-1.2,1.32-1.79s.45-.91,1.16-.88c2.47.1,4.41,3,5.62,4.85a23.4,23.4,0,0,1,4.08,14.78c-.57,6.34-4.89,11.31-8.92,15.87-1.27,1.45.84,3.58,2.12,2.13,4.28-4.84,8.66-10,9.63-16.63a25.71,25.71,0,0,0-4.1-17.33c-1.58-2.48-3.58-5.16-6.42-6.25a5,5,0,0,0-4.06,0,4.6,4.6,0,0,0-1.2,1.32q-.79,1-1.56,2.07C42,65.61,38.7,71.92,39.71,78.78,40.77,86,45.48,92.32,50.2,97.67c1.28,1.45,3.4-.68,2.12-2.12Z"/><path class="cls-2" d="M67.44,86.07c1.89,5.38,7,6.85,12.73,6.32s10.8-3.58,15.6-6.66c2.49-1.61,5.86-3.39,7.11-6.07C92,73.32,76.79,76.17,67.84,85"/><path d="M66,86.46a10.78,10.78,0,0,0,6.84,6.76,19.69,19.69,0,0,0,10.74.1,41.06,41.06,0,0,0,11.84-5.59c3.12-2,7-3.87,8.76-7.31a1.54,1.54,0,0,0-.54-2.06c-11.71-6.72-27.38-3.66-36.86,5.56-1.39,1.35.74,3.47,2.12,2.12C77.42,77.76,91.59,74.9,102.13,81l-.54-2c-1.43,2.85-4.74,4.37-7.32,6A43,43,0,0,1,84,90.08c-5.22,1.59-12.9,1.69-15.15-4.41-.66-1.8-3.56-1-2.89.79Z"/><path class="cls-2" d="M82.19,68.67c-1.63-3.14-3.6-7.42-.7-12.83a8.38,8.38,0,0,1,1.74,11.93"/><path d="M83.48,67.91a16.57,16.57,0,0,1-1.86-5,10.22,10.22,0,0,1,1.16-6.29l-2,.54a6.91,6.91,0,0,1,1.44,9.57,1.55,1.55,0,0,0,0,2.12,1.51,1.51,0,0,0,2.12,0,9.91,9.91,0,0,0-2-14.28,1.51,1.51,0,0,0-2.06.54,13.35,13.35,0,0,0-1.52,8.24,20,20,0,0,0,2.22,6.1c.89,1.71,3.48.2,2.59-1.52Z"/><path class="cls-2" d="M39,111.43a39.93,39.93,0,0,1,29.4-8.22,1.73,1.73,0,0,1,1.3.58c.39.57,0,1.34-.37,1.9-2.4,3.4-6,5.8-9.57,7.84-3.9,2.2-8.18,4.11-12.65,4s-6.87-.73-7.9-5.08"/><path d="M39.8,112.73a39.17,39.17,0,0,1,25.3-8.31c1,0,2.07.26,3.08.26.23,0,.62.31.34-.12s-.19,0-.35.22A10.21,10.21,0,0,1,67,106.25a25.27,25.27,0,0,1-5.12,4.27c-3.9,2.53-8.45,5.11-13.19,5.44a13.44,13.44,0,0,1-5.64-.54c-1.47-.6-2-2-2.38-3.41-.47-1.87-3.36-1.08-2.89.8a7.75,7.75,0,0,0,3,4.77A10.66,10.66,0,0,0,46.13,119c5.78.34,11-2,15.87-5a31.78,31.78,0,0,0,6.57-5c1.45-1.48,4.23-4.44,2-6.45a5,5,0,0,0-3-.91,35.69,35.69,0,0,0-4.38-.22,40.36,40.36,0,0,0-8,.9,42.38,42.38,0,0,0-16.9,7.85c-1.51,1.15,0,3.76,1.52,2.59Z"/><path class="cls-2" d="M33.83,120.7c.47-1.87-.46-4.19-1.13-6A14.7,14.7,0,0,0,30,110.36a33.37,33.37,0,0,0-17.4-10.69,2,2,0,0,0-1.76.14,2,2,0,0,0-.53,1.27A25,25,0,0,0,22,125.63c2.55,1.49,5.65,2.53,8.46,1.58"/><path d="M35.28,121.09c.54-2.73-.5-5.68-1.71-8.12a23.49,23.49,0,0,0-5.33-6.54,35.14,35.14,0,0,0-13.75-7.79c-1.17-.35-2.58-.86-3.79-.45-1.38.47-1.79,1.74-2,3a25.15,25.15,0,0,0,.17,7.5,27,27,0,0,0,6.22,13.06c3.67,4.25,9.89,8.64,15.76,6.86,1.85-.56,1.06-3.46-.79-2.9-4.25,1.29-8.73-1.9-11.6-4.75a23.83,23.83,0,0,1-6-10.05,23,23,0,0,1-1-5.88,21.93,21.93,0,0,1,.1-2.92c0-.19,0-1,.16-1.07s1.25.25,1.52.33a31.6,31.6,0,0,1,11.6,6.08A27.19,27.19,0,0,1,30,112.82a14.83,14.83,0,0,1,1.77,3.62,7.68,7.68,0,0,1,.64,3.86c-.38,1.88,2.51,2.69,2.89.79Z"/><path class="cls-2" d="M28.59,142.91a39.73,39.73,0,0,1,25.63-15c.71,3.25-.47,6.62-2,9.58a29.36,29.36,0,0,1-9.59,11.43,18,18,0,0,1-14.37,2.77l.38-1.11"/><path d="M29.65,144a38.79,38.79,0,0,1,25-14.63l-1.85-1.05c.62,3.2-.72,6.38-2.19,9.15a30.58,30.58,0,0,1-5.38,7.44c-4.29,4.27-10.46,6.88-16.51,5.34l1,1.85.39-1.11c.63-1.83-2.26-2.62-2.89-.8l-.39,1.11a1.51,1.51,0,0,0,1.05,1.84C35,154.92,42.27,152,47.33,147a34,34,0,0,0,6.12-8.59c1.75-3.41,3-7.06,2.21-10.91a1.52,1.52,0,0,0-1.84-1,41.18,41.18,0,0,0-26.29,15.4,1.55,1.55,0,0,0,0,2.12,1.51,1.51,0,0,0,2.12,0Z"/><path d="M49.52,157.52a63.65,63.65,0,0,0-27.4,2.18A125.29,125.29,0,0,0,8.9,164.81c-3.54,1.56-8.74,3.71-8.9,8.3-.16,4.77,5.52,7.15,9.35,8.06a72.41,72.41,0,0,0,15.93,2,53.46,53.46,0,0,0,15.24-2.06,38.63,38.63,0,0,0,11.83-5.33,24.47,24.47,0,0,0,5.26-5c1.49-1.9,2.91-4.18,2.75-6.7-.12-2-1.61-3.13-3.19-4.06a20.07,20.07,0,0,0-7.65-2.51c-1.91-.25-1.89,2.75,0,3a16.29,16.29,0,0,1,5.84,1.93c1.38.77,2.23,1.2,1.93,2.73A10.76,10.76,0,0,1,54.41,170a22.09,22.09,0,0,1-4.18,3.6c-6.75,4.51-15.52,6.45-23.54,6.56a71.5,71.5,0,0,1-14.15-1.35A26.25,26.25,0,0,1,7,177.27c-1.52-.66-3.85-2-3.95-3.87-.09-1.66,1.6-3,2.84-3.77A39.26,39.26,0,0,1,11.43,167a114.54,114.54,0,0,1,11.49-4.37,61.52,61.52,0,0,1,26.6-2.07,1.5,1.5,0,1,0,0-3Z"/><path d="M33.49,169.73a66.43,66.43,0,0,1,1.39-47,62.07,62.07,0,0,1,13.29-19.77c5.64-5.71,12-10.57,18.19-15.69,6.87-5.71,13.49-11.86,18.22-19.52,1-1.64-1.58-3.15-2.59-1.51-8.65,14-23.47,22.34-35,33.64a65.89,65.89,0,0,0-14,19.74,69.4,69.4,0,0,0-6,23.77,68,68,0,0,0,3.59,27.18c.63,1.81,3.53,1,2.89-.8Z"/><path d="M6,177.27c-.12-3.39,3.52-5.08,6.12-6.3a73.12,73.12,0,0,1,9.64-3.53c3.68-1.13,7.43-2.53,11.3-2.79a56.94,56.94,0,0,1,11.51.76c4.23.57,8.83.66,12.79,2.39,1.76.76,3.29-1.82,1.52-2.59-3.93-1.71-8.12-2-12.31-2.53a71.56,71.56,0,0,0-13.06-1.06c-4.26.22-8.29,1.62-12.34,2.87a75.91,75.91,0,0,0-10.9,4c-3.55,1.71-7.42,4.29-7.27,8.73.06,1.92,3.06,1.93,3,0Z"/><path class="cls-2" d="M202.15,6a43.24,43.24,0,0,1,5.56-1.65H208l41.87,43.14c4.08,4.21,8.43,8.58,14.07,10.19-10.76,15.69-33,44.43-31.67,46.2,1.16,1.5-3.89,4.52-7,5,0-3-5.14-2.08-8.34-.5l-44.15,21.92c-8.73-23.64-22.45-50.3-34.51-72.42L138,57.5v-.36c.06.14.28,0,.34-.16a15,15,0,0,1,2.76-4.19l.45-.41C151.23,43,166.77,40,180.22,40.82a66.52,66.52,0,0,1,7-21.28,29,29,0,0,1,15-13.72"/><path d="M202.55,7.4q1.47-.54,3-1A10.59,10.59,0,0,1,208,5.79l-1.06-.44,22.49,23.17C236.65,36,243.78,43.67,251.22,51c3.53,3.47,7.45,6.65,12.27,8.09l-.89-2.21c-6,8.66-12.25,17.08-18.41,25.59-2.82,3.89-5.63,7.78-8.33,11.75a52,52,0,0,0-4.66,7.55c-.36.79-.85,2.24-.29,2.73-.63-.55.45-.4,0-.24-.11,0-.42.47-.5.55a9.5,9.5,0,0,1-1.6,1.11,12.17,12.17,0,0,1-4,1.47l1.9,1.45c-.15-3.11-3.17-3.71-5.74-3.34-3.58.51-6.79,2.51-10,4.09L186,122l-14.05,7,2.2.9c-7.48-20.19-17-39.59-27.06-58.63q-2.06-3.88-4.14-7.77c-1.24-2.3-2.33-4.94-3.94-7l.44,1.06v-.36l-2.26,1.29c1.7.93,2.39-.83,3.05-2A13.64,13.64,0,0,1,143,53.06a34.09,34.09,0,0,1,7.62-5.3,51.37,51.37,0,0,1,18.57-5.23,71.29,71.29,0,0,1,11-.21,1.54,1.54,0,0,0,1.5-1.5,61.38,61.38,0,0,1,6.84-20.69A27.72,27.72,0,0,1,202.62,7.27c1.78-.7,1-3.6-.8-2.9a30.85,30.85,0,0,0-15.67,13.91,64.53,64.53,0,0,0-7.43,22.54l1.5-1.5c-12.57-.72-26.41,1.53-36.63,9.34a36.48,36.48,0,0,0-3.53,3,14.73,14.73,0,0,0-1.71,2.14,14.44,14.44,0,0,0-.77,1.25c-.1.18-.19.37-.29.56l-.18.38c-.16.31-.09.27.21-.13h1.52l-.11-.06a1.51,1.51,0,0,0-2.25,1.3,3.29,3.29,0,0,0,.65,1.81c.67,1.16,1.29,2.36,1.92,3.54q1.88,3.45,3.7,6.91,3.85,7.25,7.58,14.56c5,9.9,9.84,19.91,14.26,30.09,2.37,5.47,4.62,11,6.69,16.58a1.52,1.52,0,0,0,2.2.9l28.32-14,14-7a19.78,19.78,0,0,1,5.32-2c.51-.09,2.51-.46,2.55.35a1.53,1.53,0,0,0,1.9,1.45,14.1,14.1,0,0,0,6.87-3.36,3.75,3.75,0,0,0,1.4-2.61c0-.2-.13-1.21-.39-1.26.13,0,.15.49.16.57,0-.22,0,.19,0,.17a1.85,1.85,0,0,0,.12-.4l0-.11c-.09.22.06-.13.09-.19.24-.49.49-1,.76-1.45.79-1.38,1.66-2.71,2.54-4,5.67-8.53,11.86-16.73,17.88-25,3.42-4.71,6.84-9.41,10.13-14.2a1.52,1.52,0,0,0-.9-2.21c-4.72-1.41-8.43-4.76-11.83-8.19-4-4-7.86-8.08-11.79-12.13L216.28,10.71c-2.31-2.37-4.56-4.81-6.92-7.13-1-1-1.82-.8-3.13-.47-1.52.39-3,.86-4.48,1.39-1.79.66-1,3.56.8,2.9Z"/><path d="M174.72,120.6c-1,2.32-1.92,4.66-2.76,7a1.52,1.52,0,0,0,1,1.85,1.54,1.54,0,0,0,1.84-1c.4-1.11.81-2.2,1.23-3.3l.63-1.57c.11-.28.23-.56.35-.84l.15-.36c-.14.32.08-.19.1-.24a1.62,1.62,0,0,0,.15-1.16,1.5,1.5,0,0,0-2.74-.36Z"/><path d="M177.77,122.33a92,92,0,0,1,46.06-19.48c1.9-.23,1.92-3.23,0-3a95.6,95.6,0,0,0-48.18,20.36c-1.5,1.21.63,3.32,2.12,2.12Z"/><path d="M255,61.08l8.73-1.86a1.52,1.52,0,0,0,1.05-1.85,1.54,1.54,0,0,0-1.84-1l-8.74,1.87a1.52,1.52,0,0,0-1,1.85,1.54,1.54,0,0,0,1.85,1Z"/><path d="M253.77,58.73a66.71,66.71,0,0,0-31.56,41.72c-.46,1.87,2.43,2.67,2.89.8a64.26,64.26,0,0,1,20.82-33.4,61.69,61.69,0,0,1,9.36-6.52,1.5,1.5,0,0,0-1.51-2.6Z"/><path d="M179.41,41.25C182,46,186.92,49,190,53.48c3.26,4.78,5.64,10.08,8.86,14.89,6.41,9.55,14.3,18,20.45,27.75.91,1.46,1.79,2.94,2.62,4.45.6,1.1,1.38,2.48,2.9,2.06a1.8,1.8,0,0,0,.85-3,1.73,1.73,0,0,0-2.89,1.28,1.5,1.5,0,0,0,3,0v-.15l-.74,1.3-.43.13-1.06-.44.11.13-.38-1.46-.08.24.69-.9c1.24-.71,1.11.56.82-.33a5.11,5.11,0,0,0-.41-.76q-.47-.84-1-1.68c-.62-1-1.26-2.08-1.92-3.1-1.36-2.11-2.8-4.17-4.28-6.19-2.93-4-6-7.84-9.06-11.76a139.45,139.45,0,0,1-8.5-12C197,59.85,195,55.4,192.21,51.45a39.13,39.13,0,0,0-5.14-5.77,24.9,24.9,0,0,1-5.07-6c-.93-1.69-3.52-.18-2.59,1.52Z"/><path d="M140.07,53.24a108.62,108.62,0,0,1,7.74,15.25c2.31,5.26,4.81,10.36,7.48,15.45,5.12,9.76,8.87,20.15,14.48,29.66a61.16,61.16,0,0,1,3.95,7.3c.48,1.16,1.05,2.91,2.71,2.48a1.78,1.78,0,0,0,.72-3,1.45,1.45,0,0,0-1.45-.38l-.12,0c-1.79.66-1,3.56.8,2.89l.11,0-1.46-.38-.32-1.08.69-.89-.13.07,1.16-.16c.73.27.28.16.23-.24a3.13,3.13,0,0,0-.32-.78c-.18-.4-.36-.8-.55-1.19-.52-1.09-1.1-2.16-1.7-3.21-1.16-2-2.39-4-3.54-6.09-2.46-4.34-4.52-9-6.55-13.51-2.12-4.75-4.23-9.46-6.66-14.06s-4.69-9.28-6.78-14.07a110.26,110.26,0,0,0-7.9-15.6c-1-1.62-3.64-.12-2.59,1.51Z"/><path d="M202.29,7.31c3.78,2.38,6.69,5.8,9.55,9.17,3,3.57,6.22,7,9.51,10.29s6.85,6.86,10,10.5,6.22,7.62,9.44,11.34c1.85,2.14,3.62,4.3,5.63,6.28,2.18,2.16,4.42,4.26,6.64,6.37,1.4,1.34,3.52-.78,2.12-2.12a137.52,137.52,0,0,1-11-11.22c-1.63-1.94-3.35-3.81-5-5.76s-3.06-3.93-4.68-5.84c-6.27-7.39-13.61-13.78-19.89-21.17-3.26-3.84-6.52-7.71-10.82-10.43-1.64-1-3.15,1.56-1.52,2.59Z"/><path d="M225.35,105.17a6.23,6.23,0,0,1-.17-.86l0,.4a6.43,6.43,0,0,1,0-1.58l0,.4a6.3,6.3,0,0,1,.41-1.53l-.15.36a2.43,2.43,0,0,1,.22-.46l-.23.3a1,1,0,0,1,.18-.18l-.31.24a.6.6,0,0,1,.15-.09l-.35.15.1,0-.4,0h0l-.39,0h0l-.36-.16,0,0-.3-.24,0,0-.24-.3,0,0a1.63,1.63,0,0,0,.9.69,1.5,1.5,0,0,0,1.85-1.05,1.45,1.45,0,0,0-.16-1.15,2.17,2.17,0,0,0-.64-.64,1.68,1.68,0,0,0-1.28-.15,2.1,2.1,0,0,0-1.06.67,5.06,5.06,0,0,0-.9,2,7.77,7.77,0,0,0,.05,3.89,1.5,1.5,0,1,0,2.89-.79Z"/><path d="M225.2,102.71a11.28,11.28,0,0,1,1.54,0h-.09l.2,0,.41.07.7.17c.23.07.45.14.68.23a1.77,1.77,0,0,1,.38.15c-.37-.21,0,0,.11,0a10.3,10.3,0,0,1,1.33.78,1.51,1.51,0,0,0,2.06-.54,1.54,1.54,0,0,0-.54-2.05,11.11,11.11,0,0,0-6.78-1.92,1.5,1.5,0,0,0,0,3Z"/><path class="cls-2" d="M105.22,266.82c-7-16-10.88-33.88,2-52.57s36.94-29.79,59-24.77,39.62,27.46,36.71,49.94"/><path d="M106.52,266.06c-5-11.55-8.21-24.28-4.83-36.76s12.43-23.17,23.16-30.14a55.89,55.89,0,0,1,33.74-9.28A46.3,46.3,0,0,1,189,204.33c8.9,9.32,14.07,22.15,12.46,35.09-.24,1.91,2.76,1.89,3,0,1.51-12.14-2.77-24.25-10.29-33.71a49.63,49.63,0,0,0-31-18.33,57.38,57.38,0,0,0-36.19,7c-11.67,6.48-21.57,16.82-26.56,29.29-5.15,12.85-3.31,26.66,1.59,39.27.6,1.56,1.25,3.1,1.92,4.64.77,1.76,3.35.24,2.59-1.52Z"/><path class="cls-2" d="M120.56,133.13c-13.87,3.74-18.65,16.25-16.24,27.77s14.07,20.26,25.82,19.63,22.32-10.3,24.25-21.92a21.41,21.41,0,0,0-.06-7.86,21,21,0,0,0-2-5.49C146.64,134.28,134.43,129.39,120.56,133.13Z"/><path d="M120.16,131.68a23.27,23.27,0,0,0-17.86,21.54A26.81,26.81,0,0,0,117,179.11a26,26,0,0,0,16,2.61,27.76,27.76,0,0,0,14.28-7.21,28.15,28.15,0,0,0,8.21-13.77,23.25,23.25,0,0,0-3.24-18.6,25.92,25.92,0,0,0-13.42-10.31,32.65,32.65,0,0,0-18.66-.15,1.5,1.5,0,0,0,.8,2.89c9.32-2.46,19.67-1.1,26.46,6.25a20.78,20.78,0,0,1,5.75,15.48,24.14,24.14,0,0,1-5.6,13.54c-6.36,7.62-16.55,11.24-26.1,7.92a24,24,0,0,1-16.22-21.47,22.37,22.37,0,0,1,3.37-13.13A21,21,0,0,1,121,134.57,1.5,1.5,0,0,0,120.16,131.68Z"/><path d="M127.13,169.06a12.77,12.77,0,0,0,15-6.06c.89-1.72-1.7-3.24-2.59-1.52a9.77,9.77,0,0,1-11.6,4.69,1.5,1.5,0,1,0-.8,2.89Z"/></g></g></svg>