<svg xmlns="http://www.w3.org/2000/svg" viewBox="0 0 264.39 265.11"><defs><style>.cls-1{fill:#b01711;}.cls-2{fill:#fff;}</style></defs><g id="Layer_2" data-name="Layer 2"><g id="Layer_1-2" data-name="Layer 1"><path class="cls-1" d="M68.85,87.6c-15.79,10.49-24.23,25.84-32.28,43-6.89,14.71-10.13,32.41-3,47,3.81,7.87,10.25,14.11,16.62,20.09,7.67,7.19,15.55,14.35,24.89,19.17,18.12,9.34,39.67,8.88,59.86,6.08,17.16-2.38,35-6.71,47.73-18.43,5-4.62,9.08-10.2,13.89-15,8.55-8.59,19.34-14.64,30.51-19.35,9.68-4.08,20.15-7.51,27.23-15.26,6.52-7.14,9.2-17,9.93-26.66,2.35-31.4-15.72-63.38-43.83-77.57C187,33.83,144.93,41.43,112.56,22.82c-7.18-4.13-13.82-9.53-21.82-11.68C78.61,7.86,65.61,12.73,55.4,20.05c-5.06,3.62-9.77,8-12.83,13.37-5.66,10-5,22.9.5,33S58.24,84,69,88.08"/><path class="cls-2" d="M19.62,80.18C5.17,95.86-1.28,118,2.59,138.5c3.94,20.92,18.63,39.86,38.72,49s45.08,8.16,64-3.13,30.78-32.64,29.48-53.85a76.81,76.81,0,0,0-5.89-23.83A96.09,96.09,0,0,0,114,81c-9.8-11.84-20.73-16.89-36.81-19S34.07,64.51,19.62,80.18Z"/><path d="M18.56,79.12a71.09,71.09,0,0,0-18,38.81,66.85,66.85,0,0,0,7.53,40.32,70.19,70.19,0,0,0,71.1,36.44,66.2,66.2,0,0,0,38.49-18,62.17,62.17,0,0,0,18.24-36.12c2-15.77-3.47-31.76-10.81-45.52-6.51-12.2-15.64-23.76-28.55-29.49-11-4.89-23.62-6.35-35.56-5.09C48.52,61.79,35.76,65.57,25.52,73a47.6,47.6,0,0,0-7,6.11c-1.31,1.42.8,3.54,2.12,2.12C29,72.3,40.8,67.32,52.57,64.82a74.41,74.41,0,0,1,33.78.43A49.4,49.4,0,0,1,102.6,72.4a57.1,57.1,0,0,1,13.69,14.09,98.69,98.69,0,0,1,11,20.23c3.06,7.53,5.46,15.46,6,23.61.86,13.1-3.44,26.09-11.11,36.65A61,61,0,0,1,89.06,189.7a70.18,70.18,0,0,1-41.76-1.35A67.06,67.06,0,0,1,16,165,64.85,64.85,0,0,1,3,128.53,67.43,67.43,0,0,1,20.68,81.24C22,79.82,19.87,77.7,18.56,79.12Z"/><path d="M18.4,81.15c3.05,2.4,6.37,4.67,10.34,5a15.13,15.13,0,0,0,5.92-.89,13.24,13.24,0,0,1,5.44-.66c6,.64,13.11,5.2,18.69.94l-2.2-.9c1.42,8.09,2.74,17.94-3.81,24.22-6.08,5.83-15.2,6.24-21.52,11.75a24.52,24.52,0,0,0-4.27,5.1c-1.09,1.64-2.21,3.44-4.08,4.26s-4.24.87-6.06,2.25a8.25,8.25,0,0,0-2.94,4.37,9.74,9.74,0,0,0,3.29,10.12c3.46,2.89,8.13,3.83,12.54,3.54a51.08,51.08,0,0,0,8.76-1.57c1.4-.35,3.11-1,4.56-.65,1.12.29,1.85,1.36,2.61,2.15A13.52,13.52,0,0,0,59,153.71l-1.7-.69c1.94,3.74,4,7.78,4.24,12.07a11.56,11.56,0,0,1-1.09,5.67c-.82,1.71-1.87,3.3-2.69,5-1.53,3.2-2,6.7.82,9.35,1,1,2.86,1.8,3.35,3.21a7,7,0,0,1-.48,4.49c-.72,1.8,2.18,2.57,2.89.8a10.54,10.54,0,0,0,.7-4.78,5.88,5.88,0,0,0-2.36-4.22c-1.29-1.08-3-2-3.21-3.88s1-3.66,1.79-5.18a32.39,32.39,0,0,0,2.61-5.28,14.32,14.32,0,0,0,.58-6.24c-.52-4.47-2.51-8.58-4.56-12.52a1.51,1.51,0,0,0-1.69-.69,10.65,10.65,0,0,1-10.94-3.27c-1.6-1.72-3.36-2.76-5.79-2.51s-5,1.15-7.47,1.65c-4.48.9-9.42,1.18-13.5-1.24-3-1.81-5-5.32-3.44-8.78a5.42,5.42,0,0,1,4-3A11.46,11.46,0,0,0,26.74,131a29.24,29.24,0,0,0,3.54-4.74,18.09,18.09,0,0,1,4.42-4.48c3.19-2.26,6.92-3.43,10.51-4.87a28.39,28.39,0,0,0,10.43-6.59C62.33,103.2,61,92.68,59.48,83.9a1.51,1.51,0,0,0-2.2-.9c-2.29,1.75-5,1.49-7.64.86-3.07-.72-6-1.79-9.19-2.17a14.12,14.12,0,0,0-4.63.19c-1.9.4-3.71,1.29-5.67,1.37-3.66.13-6.87-2-9.63-4.22C19,77.84,16.89,80,18.4,81.15Z"/><path d="M105.44,71.35c-6.42.11-6,7.2-5.47,11.8.13,1.23.29,2.47.34,3.71a13.68,13.68,0,0,1,0,1.43c0,.24,0,0-.06.34a1.11,1.11,0,0,1-.07.26c-.12.37.15-.21,0,.09-.09.15.25-.19-.33.3a15.42,15.42,0,0,1-1.32,1,22.88,22.88,0,0,0-2.73,2,10.51,10.51,0,0,0,3,17.33,1.56,1.56,0,0,0,1.82-.24c2.31-2.31,6.07-.47,8-3.35,1.43-2.1,1-5,.28-7.31l-.15,1.16c-.14.18.49.18.76.28a8.36,8.36,0,0,1,1.06.58,17.25,17.25,0,0,0,1.89.91,37.62,37.62,0,0,0,4.63,1.45c3,.79,6.44,1.31,9.16,3,1.65,1,3.15-1.58,1.51-2.59-2.69-1.67-6-2.3-9-3.07-1.56-.4-3.12-.8-4.63-1.34s-2.58-1.43-4-1.88S106.46,97,106,98.73a5.29,5.29,0,0,0,.39,2.27,7.18,7.18,0,0,1,.13,2.07c-.16,1.74-1.2,1.85-2.76,1.92a7.81,7.81,0,0,0-5.31,2.28l1.82-.23c-3.41-1.58-5.64-5.14-4.63-8.93A8.27,8.27,0,0,1,99,93.53c1.24-.88,3-1.69,3.74-3,.93-1.59.62-3.78.45-5.51a49,49,0,0,1-.49-6.94c.09-2.06.59-3.65,2.77-3.69,1.93,0,1.93-3,0-3Z"/><path class="cls-2" d="M128.41,110.76c-5.45-.4-23.41,2.5-28.4,4.62a17,17,0,0,0-8.15,23.53c.81,1.51,3.79,4.79,5.43,5.43,2.89,1.13,8.11.72,10.55,2.57a4.82,4.82,0,0,1,1.4,5,57.26,57.26,0,0,0-1.09,6c-.9,8.14,1.19,13.89,4.53,20.81"/><path d="M128.41,109.26a43.43,43.43,0,0,0-7.89.45q-5.42.65-10.79,1.66c-6.2,1.16-12.65,2.4-16.92,7.49-4.78,5.69-5.92,14.24-2.24,20.81,1.52,2.72,4.33,5.7,7.43,6.46,1.87.46,3.82.54,5.71.88,1.64.29,3.66.67,4.1,2.56a7.29,7.29,0,0,1-.31,3.27c-.28,1.3-.52,2.61-.7,3.92a32.78,32.78,0,0,0-.19,8c.55,5.23,2.51,10,4.77,14.75.84,1.74,3.43.22,2.59-1.51a43.48,43.48,0,0,1-4.27-12.46c-.64-4.49.08-8.83,1-13.21a6.82,6.82,0,0,0-1-5.58,7.35,7.35,0,0,0-4.57-2.48c-1.8-.39-3.64-.49-5.44-.82a6.8,6.8,0,0,1-3.93-2.06,13.81,13.81,0,0,1-4.32-8.62,16,16,0,0,1,2-9.74,15,15,0,0,1,7.32-6.36,47.44,47.44,0,0,1,7.6-2q5.55-1.14,11.2-1.85a46.84,46.84,0,0,1,8.77-.56c1.93.12,1.92-2.88,0-3Z"/><path class="cls-2" d="M91.86,82.8c-4.52,0-3.08,5.89-.18,5.66S96.39,82.8,91.86,82.8Z"/><path d="M91.86,81.3a4.75,4.75,0,0,0-2.74.78A3.78,3.78,0,0,0,87.6,84.3a5,5,0,0,0,1.29,4.53,3.8,3.8,0,0,0,4.77.5,5.29,5.29,0,0,0,2.44-4.22,3.57,3.57,0,0,0-1-2.67,4.58,4.58,0,0,0-3.21-1.14,1.5,1.5,0,0,0,0,3,4.26,4.26,0,0,0,.61,0s-.42-.07-.21,0l.11,0,.28.07.2.07c.19.06-.23-.08-.21-.09l.08,0,.19.11.08,0c.21.13-.26-.23-.16-.13s.2.24.26.26-.24-.34-.16-.2l0,.07a1.62,1.62,0,0,1,.1.18c.14.24-.13-.36-.06-.17a1.21,1.21,0,0,1,0,.18c0,.06,0,.12.05.18.06.29,0-.41,0-.17s0,.25,0,.37,0,.12,0,.17.08-.48,0-.13a2.62,2.62,0,0,1-.09.38l-.07.19c-.1.29.17-.37,0-.1a4.67,4.67,0,0,1-.42.72c0,.06.29-.36.09-.12l-.14.16c-.1.1-.2.2-.31.29s.3-.21.12-.09l-.17.12c-.12.07-.24.14-.37.2.44-.22.17-.06,0,0l-.17,0c-.3.06.43,0,.12,0-.12,0-.24,0-.37,0s.46.08.26,0l-.08,0-.2,0c-.15,0-.29-.16.16.08l-.15-.07c-.11-.06-.21-.14-.31-.2.48.31.12.09,0,0l-.12-.12,0-.07c-.14-.16.24.34.13.17l-.21-.32-.08-.15c0-.07-.16-.35,0,0s0,0,0,0L90.56,86c0-.13-.07-.26-.09-.39s0-.06,0-.09,0,.29,0,.27a.71.71,0,0,0,0-.2c0-.14,0-.28,0-.41a.28.28,0,0,1,0-.09c0-.2-.07.41,0,.25a1.55,1.55,0,0,0,0-.21l.06-.21,0-.08c.07-.23-.16.34-.09.2l.2-.35c.15-.24-.27.31-.08.1.06-.06.1-.11.16-.16s.33-.18-.1.06l.2-.13.22-.11c.1-.06.22,0-.22.09a.59.59,0,0,0,.14-.06,4.9,4.9,0,0,1,.55-.13c.11,0,.25,0-.22,0h.16l.36,0a1.5,1.5,0,0,0,1.5-1.5A1.52,1.52,0,0,0,91.86,81.3Z"/><path class="cls-2" d="M152.35,249.1c7,8,21.14,16.75,34,14,14-3,49-14.18,63.16-25.38,2.82-2.22,3.75-3.71,5.84-6.62,6.4-8.91,5-15.85,3.39-26.71-1-7.06-2.1-14.31-5.71-20.47-5.14-8.79-14.58-14-23.57-18.78-5-2.66-10.19-5.38-15.83-5.58-4-.14-8,1-11.83,2.29-14.39,4.76-27.25,10.12-40.25,17.92-5.29,3.18-10.62,6.77-13.82,12-2.95,4.85-3.82,10.67-4.24,16.33a120.72,120.72,0,0,0,.86,22.95C145.13,238.07,145.35,241.1,152.35,249.1Z"/><path d="M151.29,250.16c7.42,8.4,18.94,15.1,30.39,15,4.27-.05,8.51-1.32,12.6-2.43,4.52-1.23,9-2.6,13.45-4.06a226.79,226.79,0,0,0,29.46-11.74,80.91,80.91,0,0,0,11.67-6.8A33.49,33.49,0,0,0,259,227.92c2.4-4.82,2.83-10,2.31-15.3a141.48,141.48,0,0,0-3-18.77,35.49,35.49,0,0,0-8.5-16.54c-4.12-4.38-9.27-7.7-14.48-10.64-5.49-3.09-11.26-6.61-17.46-8-7.07-1.62-13.82.78-20.45,3.07a194.6,194.6,0,0,0-36.71,16.75c-5.25,3.15-10.5,6.71-13.93,11.9-3.63,5.51-4.54,12.31-5,18.75a123.49,123.49,0,0,0,.88,21.49c.49,4.45,1,8.72,3.3,12.66a46.9,46.9,0,0,0,5.19,6.89c1.27,1.46,3.38-.67,2.12-2.12-3.11-3.58-6-7.33-6.9-12.07-.44-2.24-.63-4.54-.87-6.81-.37-3.49-.67-7-.81-10.48-.25-6.43-.13-13.16,1.48-19.43a25.3,25.3,0,0,1,10.1-14.34,117.25,117.25,0,0,1,16.14-9.52,182.75,182.75,0,0,1,17.35-7.71q4.6-1.77,9.26-3.36a74.36,74.36,0,0,1,9.56-2.84,20.67,20.67,0,0,1,9.73.39,47,47,0,0,1,9.07,3.93c9.89,5.22,20.76,10.9,25.61,21.58,2.6,5.72,3.39,12.1,4.29,18.26.73,5,1.76,10.32.81,15.39a21.63,21.63,0,0,1-2.8,7.23,36,36,0,0,1-4.75,6.42c-2.91,3-6.72,5.18-10.34,7.18a179.21,179.21,0,0,1-27,11.68,244.77,244.77,0,0,1-25,7.58,30.51,30.51,0,0,1-6.23,1,27.79,27.79,0,0,1-8.55-1.15,42.48,42.48,0,0,1-14.83-7.89,44,44,0,0,1-5.28-5C152.13,246.59,150,248.71,151.29,250.16Z"/><path d="M154.15,233c.92-.21,2,.56,2.8,1,1.14.66,2.28,1.35,3.39,2a62.58,62.58,0,0,1,6.75,4.92c.35.3,1,.7,1.08,1.19a2,2,0,0,1-.56,1.42c.23-.2.13-.08-.14-.2s-.46-.24-.69-.38c-.65-.38-1.29-.77-1.93-1.16q-3.94-2.39-7.81-4.88l-2-1.32a5.53,5.53,0,0,1-1.51-1.16c-.42-.6,0-1.25.66-1.48,1.83-.59,1-3.49-.79-2.89a4.07,4.07,0,0,0-3,3.2,4.22,4.22,0,0,0,1.89,4.09c1.54,1.16,3.24,2.15,4.87,3.18s3.53,2.22,5.3,3.31c.84.51,1.68,1,2.53,1.52a5.87,5.87,0,0,0,2.68,1c1.94.11,3.18-1.85,3.48-3.56.33-2-1-3.32-2.42-4.47s-3.08-2.42-4.7-3.54-3.49-2.27-5.29-3.33c-1.63-1-3.43-1.89-5.36-1.45S152.27,233.41,154.15,233Z"/><path d="M162.63,234.57c1-6.5,1.87-13,.75-19.57a1.5,1.5,0,0,0-1.84-1.05,1.53,1.53,0,0,0-1,1.85c1,6,.17,12-.76,18a1.55,1.55,0,0,0,1.05,1.84,1.52,1.52,0,0,0,1.85-1Z"/><path d="M162.47,188.75A320.25,320.25,0,0,1,207,169.33c2-.7,4.37-1.9,6.55-1.82s4,1.46,5.65,2.62v-2.59c-3.5,2-7.42,3-11.22,4.24q-6,2-11.94,4.27a245.29,245.29,0,0,0-22.66,10.09,31.48,31.48,0,0,1-6.29,2.85c-1.66.42-3.91.34-5.06-1.15v1.51l.23-.09c1.87-.47,1.07-3.36-.8-2.89a3.25,3.25,0,0,0-2,1.47,1.44,1.44,0,0,0,0,1.51c2.41,3.15,6.44,3.39,9.94,2.05,2-.79,4-1.89,5.93-2.88s4.07-2,6.12-3a243.21,243.21,0,0,1,25.34-10.19c4.69-1.58,9.61-2.77,13.95-5.21a1.52,1.52,0,0,0,0-2.59,17.64,17.64,0,0,0-5.16-2.73,9.84,9.84,0,0,0-5.8.41c-4.08,1.35-8.13,2.82-12.15,4.35q-12,4.56-23.64,10.07-6.57,3.12-13,6.52c-1.71.9-.19,3.49,1.52,2.59Z"/><path d="M224.75,171.18a15.45,15.45,0,0,0-5.12,1.49l-5.95,2.41-11.46,4.65c-7.39,3-15,5.8-22.05,9.48-1.41.74-3.21,1.5-4.14,2.86a2.86,2.86,0,0,0,.63,4.05,8.33,8.33,0,0,0,4,1.35c2,.22,3.8-.67,5.61-1.32,7.11-2.57,14.2-5.21,21.15-8.19a152,152,0,0,0,22.49-11.74,1.52,1.52,0,0,0,0-2.6l-4.23-2c-1.74-.82-3.26,1.76-1.52,2.59l4.24,2v-2.6C217,181,204.48,186.21,191.84,190.91c-3.1,1.15-6.22,2.51-9.39,3.41a4.14,4.14,0,0,1-2.34,0c-.38-.1-1.42-.25-1.69-.62v.16a1.86,1.86,0,0,1,.49-.48,8.46,8.46,0,0,1,1.11-.68c.82-.47,1.66-.91,2.5-1.33,6.35-3.18,13-5.72,19.58-8.38l11.46-4.65,5.5-2.23c1.77-.72,3.75-1.86,5.69-1.94s1.94-3.08,0-3Z"/><path class="cls-2" d="M162.87,22.81c-2.38,6.6-6.89,17.51-12.79,31.24-2.14,5-4.24,10.88-1.48,15.53,1.89,3.19,5.55,4.79,9,6.2l51.1,21a6,6,0,0,0,3.48.67c1.64-.36,2.65-2,3.46-3.45C226,75.15,230.54,65.67,238.56,45.67c1.56-3.88,3.06-8.34,1.22-12.09a14.14,14.14,0,0,0-3.55-4.16c-13.6-12-31.3-17.07-47.74-24.78-3.6-1.68-7.43-3.41-11.37-3C170.7,2.37,165.25,16.21,162.87,22.81Z"/><path d="M161.43,22.41c-2.89,8-6.23,15.81-9.54,23.62-3.46,8.13-10.77,20.45-1.65,27.55a26,26,0,0,0,5.9,3.22c2.64,1.11,5.29,2.18,7.94,3.27L180.88,87l16.57,6.82L206,97.32c2.35,1,5.07,2.52,7.6,1.24,2.11-1.07,3.16-3.44,4.23-5.41,1.25-2.28,2.5-4.57,3.72-6.86,2.13-4,4.21-8,6.2-12.07,4.07-8.3,7.69-16.79,11.16-25.35,1.9-4.7,4.57-10.21,2.53-15.3-1-2.38-2.85-4.13-4.76-5.77a69.07,69.07,0,0,0-5.92-4.57c-8.24-5.71-17.52-9.67-26.74-13.51-4.74-2-9.5-3.94-14.17-6.11-4.17-1.93-9.63-4.79-14.35-3.09-3.15,1.13-5.39,4.09-7.13,6.81a64.29,64.29,0,0,0-5.18,10.53c-.61,1.5-1.18,3-1.73,4.55-.66,1.82,2.24,2.6,2.89.8A98.16,98.16,0,0,1,168.1,14a31.7,31.7,0,0,1,5.67-8.81,6.85,6.85,0,0,1,3.12-2c2.27-.51,4.83.25,7,1,2.38.88,4.65,2.06,7,3.09,2.11.95,4.24,1.85,6.37,2.75,8.68,3.66,17.5,7.1,25.72,11.77a72.29,72.29,0,0,1,11.64,8.06c1.81,1.56,3.79,3.23,4.38,5.65s-.08,5-.86,7.23c-1.59,4.63-3.62,9.16-5.53,13.67q-2.45,5.76-5.09,11.45c-3.68,7.85-7.73,15.51-11.89,23.12-.81,1.49-2,4.9-4,5-1.2.06-2.51-.7-3.59-1.15L204,93.29l-15.66-6.44c-10.35-4.27-20.75-8.44-31.06-12.8-3.9-1.64-8-3.88-8.46-8.55s2-9.42,3.8-13.63c3.47-8.11,6.94-16.24,10.12-24.47.53-1.39,1.06-2.79,1.57-4.19C165,21.39,162.08,20.61,161.43,22.41Z"/><path d="M190.46,69.72a22,22,0,0,0,1-7.86c-.06-1.15,0-2.58-1-3.35-.73-.57-1.57-1-2.34-1.56-3.43-2.27-7.17-4.6-9.73-7.88-2.69-3.46-3.36-9.16-1.26-13s6.54-6.22,10.93-6.6c9.49-.83,19.72,4.83,25.44,12.19,2.74,3.53,4.89,8.31,3.45,12.79-1.26,3.92-5.23,6.62-9,7.67a27.59,27.59,0,0,1-6,.87,18.06,18.06,0,0,1-5.49-.31,4.44,4.44,0,0,0-2.24-.41,9,9,0,0,0-3.1,1.31c-1.86,1.23-3.46,3.09-3.45,5.43a1.5,1.5,0,0,0,3,0c0-2.18,2.81-3.6,4.65-3.89l-1.16-.15c2.65,1.53,6.52,1.18,9.44.9a22.17,22.17,0,0,0,10.29-3.19,13.58,13.58,0,0,0,6.54-10.47c.27-4.43-1.78-8.78-4.41-12.22a35.68,35.68,0,0,0-23.7-13.46,19.18,19.18,0,0,0-13.08,3A14.13,14.13,0,0,0,173,40.24a16.36,16.36,0,0,0,5.19,13c3.25,3.08,7.13,5.39,10.81,7.9l-.69-.89a19.33,19.33,0,0,1-.75,8.71c-.59,1.85,2.31,2.64,2.89.8Z"/><path d="M188.3,40.19l-.26.05c-1.89.39-1.09,3.28.8,2.9l.26-.06c1.89-.38,1.09-3.28-.8-2.89l-.26.05c-1.89.39-1.09,3.28.8,2.9l.26-.06c1.89-.38,1.09-3.28-.8-2.89Z"/><path d="M197.15,48l.48-.1a1.14,1.14,0,0,0,.51-.27,1.31,1.31,0,0,0,.39-.42,1,1,0,0,0,.17-.56,1.11,1.11,0,0,0,0-.6l-.15-.36a1.61,1.61,0,0,0-.54-.53l-.36-.16a1.55,1.55,0,0,0-.8,0l-.48.1a1.14,1.14,0,0,0-.51.27,1.31,1.31,0,0,0-.39.42,1.12,1.12,0,0,0-.18.56,1.22,1.22,0,0,0,0,.6l.15.36a1.61,1.61,0,0,0,.54.53l.36.16a1.55,1.55,0,0,0,.8,0Z"/><path d="M206.14,52.14a1.5,1.5,0,0,0,0-3,1.5,1.5,0,0,0,0,3Z"/></g></g></svg>